<svg width="319" height="148" viewBox="0 0 319 148" fill="currentColor" xmlns="http://www.w3.org/2000/svg">
<path d="M151.976 58.6335C151.976 67.4361 147.069 71.7212 136.974 71.7212H118.508C116.157 71.7212 113.907 72.6355 112.246 74.2783L78.3941 107.59L79.1622 108.667L96.3349 133.339H81.9838L71.9122 119.795L69.5765 116.261L37.3786 147.946L22.283 148L63.6276 107.311L46.5568 82.9956H61.1665L71.3792 97.7493L72.1865 98.8883L106.148 65.4757C108.695 62.9651 112.152 61.5548 115.757 61.5548H125.17H136.974C140.869 61.5548 141.434 59.5091 141.434 58.4165C141.434 57.2 140.76 55.4488 137.06 55.4488H127.31C117.215 55.4488 112.214 51.7061 112.214 42.9035C112.214 34.1009 117.121 30.0793 127.216 30.0793H138.651C140.869 30.0793 142.994 29.2115 144.561 27.6695L161.444 11.0561L158.536 21.052L168.741 18.6654L150.486 36.6425C148.143 38.9439 144.969 40.2457 141.653 40.2457H137.092H127.216C123.516 40.2457 122.764 42.1519 122.748 43.3607C122.725 44.9027 123.321 46.7857 127.216 46.7857H136.966C138.973 46.7857 140.775 46.9561 142.374 47.2816C148.817 48.6221 151.976 51.7139 151.976 58.6335ZM163.309 6.03491C162.862 4.88809 163.717 3.65604 164.963 3.67928C169.446 3.77227 175.74 1.38565 178.867 0.0683591C179.541 -0.218345 180.223 0.448048 179.941 1.11444C178.616 4.2062 176.226 10.444 176.304 14.853C176.328 16.0773 175.074 16.9142 173.914 16.4802C170.873 15.3412 166.758 15.2637 165.159 15.2869C164.791 15.2947 164.493 15.0002 164.501 14.636C164.532 13.0708 164.469 9.02593 163.309 6.03491ZM229.171 71.7212H218.644V30.0793H229.171V71.7212ZM250.897 70.3264C248.248 69.3113 245.842 67.7461 243.647 65.6074C239.407 61.5083 237.345 56.6886 237.345 50.8925C237.345 45.0964 239.407 40.2767 243.647 36.1776C247.879 32.0785 252.856 30.0716 258.86 30.0716H272.239V40.2379H258.86C255.851 40.2379 253.256 41.284 251.109 43.353C248.961 45.4296 247.879 47.9635 247.879 50.8848C247.879 53.806 248.969 56.3399 251.109 58.4321C253.241 60.4932 255.851 61.5471 258.86 61.5471H272.239V71.7134H258.86C255.984 71.7212 253.342 71.264 250.897 70.3264ZM26.6878 65.6074C22.4554 61.5083 20.4019 56.6886 20.4019 50.8925C20.4019 45.0964 22.4632 40.2767 26.6878 36.1776C30.9281 32.0785 35.9051 30.0716 41.9011 30.0716H55.2881V40.2379H41.9011C38.8913 40.2379 36.297 41.284 34.1495 43.353C32.0176 45.4296 30.9203 47.9635 30.9203 50.8848C30.9203 53.806 32.0176 56.3399 34.1495 58.4321C36.297 60.4932 38.8992 61.5471 41.9011 61.5471H55.2881V71.7134H41.9011C35.9051 71.7212 30.9281 69.722 26.6878 65.6074ZM75.9878 43.3607C78.1197 41.284 80.7376 40.2457 83.7395 40.2457C86.7492 40.2457 89.3435 41.2918 91.4832 43.3607C93.6308 45.4374 94.7124 47.9712 94.7124 50.8925C94.7124 53.8138 93.623 56.3476 91.4832 58.4243C89.3514 60.501 86.7492 61.5548 83.7395 61.5548C80.7297 61.5548 78.1197 60.501 75.9878 58.4398C73.8403 56.3554 72.7587 53.8138 72.7587 50.8925C72.7587 47.9712 73.8403 45.4374 75.9878 43.3607ZM83.7395 71.7212C89.6492 71.7212 94.7751 69.66 98.937 65.6074C103.177 61.5083 105.239 56.6886 105.239 50.8925C105.239 45.0964 103.177 40.2767 98.9527 36.1776C94.7595 32.125 89.6492 30.0716 83.7395 30.0716C77.8297 30.0716 72.696 32.1172 68.5105 36.1776C64.2781 40.2767 62.2246 45.0964 62.2246 50.8925C62.2246 56.6886 64.2859 61.5083 68.5105 65.6074C72.696 69.66 77.8141 71.7212 83.7395 71.7212ZM195.076 30.0793H209.231V71.7212H198.713V49.5907L190.193 71.7212H178.765L170.261 49.6914V71.7212H159.735V39.8273L169.65 30.0793H173.898L184.487 57.4557L195.076 30.0793ZM137.562 107.598C137.57 107.784 137.593 107.978 137.593 108.164C137.593 114.246 132.585 119.167 126.409 119.167C123.54 119.167 120.93 118.09 118.947 116.346C113.774 117.788 109.918 117.873 109.142 116.277C108.366 114.673 110.858 111.782 115.255 108.729C115.248 108.543 115.224 108.35 115.224 108.164C115.224 102.081 120.232 97.1604 126.409 97.1604C129.285 97.1604 131.887 98.2374 133.87 99.9809C139.043 98.5396 142.899 98.4544 143.675 100.051C144.444 101.655 141.951 104.545 137.562 107.598ZM126.401 82.9956C119.253 82.9956 113.069 85.4752 108.013 90.3725C102.966 95.2619 100.411 101.252 100.411 108.164C100.411 115.076 102.966 121.065 108.013 125.955C113.069 130.852 119.253 133.332 126.401 133.332C133.549 133.332 139.741 130.852 144.788 125.955C149.836 121.065 152.391 115.076 152.391 108.164C152.391 101.252 149.828 95.2619 144.788 90.3725C139.741 85.483 133.557 82.9956 126.401 82.9956ZM25.277 133.332H0V82.9879H40.31V95.6494H13.0814V103.065H40.3178V113.278H13.0814V120.678H38.1311L25.277 133.332ZM248.985 82.9956H262.074V108.171C262.074 125.118 254.847 133.347 239.979 133.347C225.111 133.347 217.876 125.126 217.876 108.171V82.9956H230.958V108.171C230.958 118.531 235.864 120.693 239.979 120.693C244.094 120.693 248.977 118.531 248.977 108.171L248.985 82.9956ZM319 117.447C319 128.148 313.043 133.339 300.793 133.339H270.217L279.011 120.686H300.793C305.245 120.686 305.887 118.996 305.887 117.129C305.895 115.261 305.017 113.286 300.793 113.286H289.122C276.872 113.286 270.915 109.31 270.915 98.5939C270.915 87.8773 276.872 82.9956 289.122 82.9956H309.132L300.33 95.6571H289.122C284.89 95.6571 284.122 97.6563 284.098 99.454C284.075 101.252 284.67 103.073 289.122 103.073H300.793C313.043 103.073 319 106.947 319 117.447ZM186.956 120.686H174.047V95.6571H186.956C191.063 95.6571 195.969 97.8268 195.969 108.164C195.962 118.5 191.055 120.686 186.956 120.686ZM186.956 82.9956H160.966V133.339H186.956C201.824 133.339 209.059 125.118 209.059 108.164C209.059 91.2171 201.816 82.9956 186.956 82.9956Z" fill="currentColor"/>
</svg>
