<?xml version="1.0" standalone="no"?>
<!DOCTYPE svg PUBLIC "-//W3C//DTD SVG 20010904//EN"
 "http://www.w3.org/TR/2001/REC-SVG-20010904/DTD/svg10.dtd">
<svg version="1.0" xmlns="http://www.w3.org/2000/svg"
 width="8000.000000pt" height="4500.000000pt" viewBox="0 0 8000.000000 4500.000000"
 preserveAspectRatio="xMidYMid meet">

<g transform="translate(0.000000,4500.000000) scale(0.100000,-0.100000)"
fill="#000000" stroke="none">
<path d="M22634 30551 c-43 -23 -1399 -771 -3013 -1663 -2069 -1145 -2940
-1631 -2955 -1651 l-21 -28 0 -1849 0 -1849 21 -28 c14 -18 272 -171 760 -451
406 -233 745 -426 752 -431 8 -4 -258 -171 -739 -462 -465 -280 -760 -465
-773 -482 l-21 -28 -3 -1977 c-2 -1908 -2 -1978 16 -2012 16 -30 131 -104 803
-518 762 -470 785 -483 829 -480 39 3 146 64 836 482 562 340 796 487 808 506
15 26 16 192 16 1989 0 1172 4 1961 9 1961 5 0 611 -344 1347 -765 1104 -632
1344 -765 1374 -765 31 0 162 76 816 474 584 355 785 481 802 506 l22 33 0
947 0 947 -22 33 c-18 26 -430 267 -2045 1194 -1113 639 -2023 1163 -2023
1166 0 3 918 531 2040 1174 1121 643 2049 1180 2062 1193 l23 25 3 966 c2 932
1 968 -17 998 -15 25 -165 110 -792 451 -426 231 -788 424 -805 427 -24 5 -47
-2 -110 -33z m-34 -1084 l0 -782 -2126 -1175 c-1397 -772 -2132 -1183 -2143
-1200 -14 -22 -16 -110 -21 -898 l-5 -874 -645 -354 c-355 -196 -673 -371
-707 -390 l-63 -35 0 1669 0 1668 2853 1577 c1568 867 2853 1577 2855 1577 1
0 2 -352 2 -783z m885 445 l620 -338 3 -782 c1 -430 -1 -782 -5 -782 -5 0
-287 152 -628 338 l-620 337 -3 783 c-1 430 1 782 5 782 5 -1 287 -153 628
-338z m-129 -1779 c464 -252 619 -341 611 -349 -13 -12 -3969 -2282 -3986
-2286 -5 -2 -299 164 -654 367 -514 294 -642 372 -629 380 104 60 4020 2224
4027 2224 5 1 289 -151 631 -336z m-2101 -3660 c2044 -1174 2692 -1551 2682
-1559 -21 -19 -1221 -747 -1232 -747 -5 0 -939 532 -2075 1182 l-2065 1181 -6
173 c-8 219 -11 1317 -3 1317 3 0 1218 -696 2699 -1547z m-750 -1336 l2070
-1183 -2 -395 c-1 -217 -5 -570 -8 -785 l-7 -391 -2762 1579 c-1518 868 -2762
1582 -2764 1586 -2 8 1375 770 1393 771 6 1 942 -531 2080 -1182z m3558 -1978
c-22 -20 -1247 -759 -1251 -754 -8 8 17 1538 26 1547 4 4 282 174 617 378
l610 371 3 -768 c1 -422 -1 -770 -5 -774z m-4925 892 l572 -324 0 -1904 c0
-1046 -2 -1903 -4 -1903 -2 0 -262 161 -578 358 l-573 359 -3 1872 c-1 1030 2
1871 6 1869 5 -1 266 -149 580 -327z m-828 -1541 l0 -1860 -22 -14 c-13 -7
-329 -175 -703 -371 -374 -197 -683 -359 -688 -362 -4 -2 -6 811 -5 1808 l3
1812 700 423 c385 233 703 424 708 424 4 0 7 -837 7 -1860z m773 -2494 c279
-175 507 -319 507 -320 0 -5 -1298 -789 -1305 -788 -18 0 -1265 776 -1258 782
4 5 320 172 702 373 l694 365 76 -47 c42 -27 304 -191 584 -365z"/>
<path d="M29630 23070 l0 -5260 820 0 820 0 0 2375 0 2375 2128 2 2127 3 3
658 2 657 -2130 0 -2130 0 0 1560 0 1560 2570 0 2570 0 0 665 0 665 -3390 0
-3390 0 0 -5260z"/>
<path d="M52330 26320 l0 -2011 -79 118 c-413 616 -1098 1037 -1906 1172 -246
41 -322 46 -690 46 -377 0 -478 -8 -750 -56 -1009 -181 -1877 -774 -2420
-1653 -497 -805 -699 -1846 -565 -2917 169 -1349 917 -2459 2037 -3018 554
-277 1221 -408 1900 -371 761 40 1232 211 1797 652 210 163 476 434 621 631
27 37 51 67 55 67 3 0 38 -233 79 -517 40 -285 78 -548 83 -585 l10 -68 734 0
734 0 0 5260 0 5260 -820 0 -820 0 0 -2010z m-1985 -2119 c513 -77 937 -296
1292 -665 383 -398 596 -870 675 -1496 17 -140 18 -659 0 -800 -78 -626 -314
-1133 -717 -1535 -360 -360 -773 -561 -1305 -637 -145 -20 -574 -17 -720 5
-392 61 -717 190 -1020 407 -320 229 -559 518 -741 895 -122 254 -195 495
-240 795 -21 136 -24 192 -24 465 0 327 7 416 52 648 78 411 246 779 494 1087
94 117 296 315 404 397 344 260 730 407 1190 453 145 14 510 4 660 -19z"/>
<path d="M59225 25639 c-1549 -134 -2742 -1058 -3231 -2504 -147 -435 -220
-878 -231 -1405 -21 -1020 214 -1858 724 -2577 441 -621 1076 -1087 1812
-1327 726 -238 1608 -268 2355 -80 616 154 1111 439 1582 909 398 397 656 809
834 1330 27 81 50 154 50 161 0 12 -133 14 -815 14 l-815 0 -51 -102 c-271
-541 -718 -895 -1282 -1017 -221 -48 -565 -65 -795 -40 -501 54 -951 267
-1321 624 -320 309 -518 694 -615 1191 -22 113 -56 367 -56 417 0 16 148 17
2974 17 1636 0 2977 3 2979 8 13 20 31 422 31 692 0 318 -11 467 -55 720 -131
754 -505 1462 -1050 1984 -611 586 -1349 911 -2234 986 -142 12 -647 11 -790
-1z m748 -1355 c671 -87 1242 -478 1527 -1044 116 -232 187 -502 214 -812 l5
-58 -2160 0 -2160 0 6 38 c70 408 183 715 364 983 143 212 296 363 526 518
342 229 703 355 1120 391 133 11 406 4 558 -16z"/>
<path d="M37210 25464 c0 -3 680 -1585 1512 -3515 l1511 -3509 220 0 c204 0
219 -1 214 -17 -3 -10 -413 -912 -911 -2004 -498 -1093 -906 -1991 -906 -1998
0 -8 224 -11 861 -11 l860 0 38 83 c95 205 4901 10964 4901 10970 0 4 -389 7
-864 7 l-863 0 -788 -1817 c-433 -1000 -983 -2271 -1223 -2825 -241 -555 -439
-1008 -442 -1008 -3 0 -532 1271 -1175 2825 l-1170 2825 -887 0 c-489 0 -888
-3 -888 -6z"/>
</g>
</svg>
