<svg width="1636" height="600" viewBox="0 0 1636 600" fill="none" xmlns="http://www.w3.org/2000/svg">
<g clip-path="url(#clip0_10008_14429)">
<path d="M404.438 449.972H403.197C388.571 449.972 375.269 441.5 369.087 428.254L287.513 253.321C285.25 248.464 280.365 245.345 275.011 245.345H267.578C266.358 245.345 265.268 246.108 264.85 247.254L199.977 425.246C194.568 440.093 180.439 450 164.626 450H152.582C151.325 450 150.449 448.753 150.874 447.571L192.447 332.08C192.792 331.12 193.703 330.48 194.723 330.48H211.926C217.721 330.48 222.91 326.865 224.897 321.401L278.323 174.754C283.732 159.879 297.861 150 313.674 150C328.3 150 341.602 158.472 347.783 171.746L428.64 345.355C430.903 350.212 435.788 353.33 441.142 353.33H450.948C452.168 353.33 453.258 352.567 453.676 351.421L518.053 174.754C523.461 159.907 537.591 150 553.404 150H566.072C567.332 150 568.208 151.252 567.777 152.436L525.693 267.941C525.347 268.89 524.447 269.525 523.437 269.532L506.379 269.658C500.612 269.658 495.451 273.273 493.464 278.709L439.762 425.301C434.325 440.121 420.224 449.972 404.438 449.972Z" fill="#0E191A"/>
<g clip-path="url(#clip1_10008_14429)">
<path d="M700.232 256.037V405.887H658.664V191.13H707.74L801.368 333.517V191.13H843.252V405.887H798.699L700.232 256.037Z" fill="#0E191A"/>
<path d="M865.958 325.421C865.958 277.884 899.157 243.146 945.202 243.146C995.77 243.146 1029.24 284.125 1021.78 336.186H908.429C911.143 362.194 923.672 376.578 944.931 376.578C963.159 376.578 975.462 367.622 980.211 351.746H1021.51C1012.55 387.93 984.734 408.601 945.835 408.601C897.981 408.601 865.958 375.402 865.958 325.467V325.421ZM909.017 309.862H977.814C976.638 287.744 964.064 273.677 944.298 273.677C924.532 273.677 912.591 286.251 909.017 309.862Z" fill="#0E191A"/>
<path d="M1139.33 246.175H1180.63V405.886H1142.64V384.944C1133.95 399.011 1116.31 408.871 1095.96 408.871C1063.93 408.871 1040.64 389.422 1040.64 347.855V246.175H1082.21V339.803C1082.21 362.238 1093.29 372.098 1110.02 372.098C1125 372.098 1139.33 360.112 1139.33 338.582V246.175Z" fill="#0E191A"/>
<path d="M1370.87 405.886H1329.3V246.175H1367.57V276.978C1379.24 256.624 1404.07 244.366 1429.81 244.366V287.426C1394.53 284.712 1370.87 293.125 1370.87 328.405V405.886Z" fill="#0E191A"/>
<path d="M1443.83 405.887V191.131H1485.71V405.887H1443.83Z" fill="#0E191A"/>
<path d="M1311.21 281.594V246.179H1265.8V198.912H1224.28V246.179H1191.85V281.594H1224.28V355.366C1224.28 383.274 1246.89 405.889 1274.8 405.889H1311.17V370.473H1277.65C1271.09 370.473 1265.75 365.136 1265.75 358.578V281.549H1311.17L1311.21 281.594Z" fill="#0E191A"/>
</g>
</g>
<defs>
<clipPath id="clip0_10008_14429">
<rect width="1335.71" height="300" fill="currentColor" transform="translate(150 150)"/>
</clipPath>
<clipPath id="clip1_10008_14429">
<rect width="827.049" height="217.742" fill="currentColor" transform="translate(658.664 191.129)"/>
</clipPath>
</defs>
</svg>
