<svg width="522" height="128" viewBox="0 0 522 128" fill="currentColor" xmlns="http://www.w3.org/2000/svg">
<g clip-path="url(#clip0_27_2711)">
<path fill-rule="evenodd" clip-rule="evenodd" d="M64 0C120.471 0 128 7.5294 128 64C128 120.471 120.471 128 64 128C7.5293 128 0 120.471 0 64C0 7.5294 7.5293 0 64 0ZM47.2 40H36V68C36 71.8578 36.7156 75.4978 38.1467 78.92C39.64 82.28 41.6622 85.2356 44.2133 87.7867C46.7644 90.3378 49.72 92.36 53.08 93.8533C56.5022 95.2844 60.1422 96 64 96C67.8578 96 71.4667 95.2844 74.8267 93.8533C78.2489 92.36 81.2355 90.3378 83.7867 87.7867C86.3378 85.2356 88.3289 82.28 89.76 78.92C91.2533 75.4978 92 71.8578 92 68V40H80.8V68C80.8 70.3022 80.3644 72.48 79.4933 74.5333C78.6222 76.5867 77.4089 78.3911 75.8533 79.9467C74.36 81.44 72.5867 82.6222 70.5333 83.4933C68.48 84.3644 66.3022 84.8 64 84.8C61.6978 84.8 59.52 84.3644 57.4667 83.4933C55.4133 82.6222 53.6089 81.44 52.0533 79.9467C50.56 78.3911 49.3778 76.5867 48.5067 74.5333C47.6356 72.48 47.2 70.3022 47.2 68V40ZM69.6 68V40H58.4V68C58.4 69.5556 58.9289 70.8933 59.9867 72.0133C61.1067 73.0711 62.4444 73.6 64 73.6C65.5555 73.6 66.8622 73.0711 67.92 72.0133C69.04 70.8933 69.6 69.5556 69.6 68Z" fill="currentColor"/>
</g>
<path d="M192 61.9778V36H204.164V62.1333C204.164 73.1 208.375 80.6444 219.292 80.6444C230.287 80.6444 235.745 73.0222 235.745 61.9778V36H247.91V61.9778C247.91 79.3222 236.603 92 219.214 92C201.903 92 192 79.3222 192 61.9778Z" fill="currentColor"/>
<path d="M265.972 90.4444V36H278.136V79.8667H314.474V90.4444H265.972Z" fill="currentColor"/>
<path d="M327.021 46.5778V36H381.605V46.5778H360.395V90.4444H348.231V46.5778H327.021Z" fill="currentColor"/>
<path d="M406.357 46.5778V61.5111H425.852C429.75 61.5111 435.755 58.8667 435.755 53.9667C435.755 49.1444 430.062 46.5778 425.852 46.5778H406.357ZM394.193 36H426.085C436.924 36 447.061 42.1444 447.061 53.6556C447.061 60.0333 443.942 65.1667 438.718 68.2L451.818 90.4444H436.768L426.319 71.1556H406.357V90.4444H394.193V36Z" fill="currentColor"/>
<path d="M461.334 90.4444L485.585 36H497.749L522 90.4444H509.134L491.667 50.9333L474.2 90.4444H461.334Z" fill="currentColor"/>
<defs>
<clipPath id="clip0_27_2711">
<rect width="128" height="128" fill="currentColor"/>
</clipPath>
</defs>
</svg>
